<svg version="1.2" xmlns="http://www.w3.org/2000/svg" viewBox="0 0 48 48" width="48" height="48">
	<title>01d-svg</title>
	<defs>
		<clipPath clipPathUnits="userSpaceOnUse" id="cp1">
			<path d="m2 2h44v44h-44z"/>
		</clipPath>
		<radialGradient id="g1" cx="25.6" cy="40.3" r="39.7" gradientUnits="userSpaceOnUse">
			<stop offset="0" stop-color="#fbb03b"/>
			<stop offset=".2" stop-color="#f7bf3b"/>
			<stop offset=".4" stop-color="#f4ce3c"/>
			<stop offset=".6" stop-color="#f0de3c"/>
			<stop offset=".8" stop-color="#eded3d"/>
		</radialGradient>
	</defs>
	<style>
		.s0 { fill: url(#g1) } 
		.s1 { fill: #f5c23e } 
	</style>
	<g id="Clip-Path: Page 1" clip-path="url(#cp1)">
		<g id="Page 1">
			<path id="Path 1" class="s0" d="m24 38.7c-8.1 0-14.7-6.6-14.7-14.7 0-8.1 6.6-14.7 14.7-14.7 8.1 0 14.7 6.6 14.7 14.7 0 8.1-6.6 14.7-14.7 14.7z"/>
			<path id="Path 4" fill-rule="evenodd" class="s1" d="m25.4 3.4v2.7c0 0.8-0.7 1.4-1.4 1.4-0.7 0-1.4-0.6-1.4-1.4v-2.7c0-0.8 0.7-1.4 1.4-1.4 0.7 0 1.4 0.6 1.4 1.4zm-19.3 19.2c0.8 0 1.4 0.7 1.4 1.4 0 0.7-0.6 1.4-1.4 1.4h-2.7c-0.8 0-1.4-0.7-1.4-1.4 0-0.7 0.6-1.4 1.4-1.4zm34.4 1.4c0-0.7 0.6-1.4 1.3-1.4h2.8c0.7 0 1.4 0.7 1.4 1.4 0 0.7-0.7 1.4-1.4 1.4h-2.8c-0.7 0-1.3-0.7-1.3-1.4zm-15.2 17.9v2.7c0 0.8-0.6 1.4-1.3 1.4-0.8 0-1.4-0.6-1.4-1.4v-2.7c0-0.8 0.6-1.4 1.4-1.4 0.7 0 1.3 0.6 1.3 1.4zm-13-6.3c0.6 0.6 0.6 1.5 0 2l-1.9 2c-0.6 0.5-1.5 0.5-2 0-0.6-0.6-0.6-1.5 0-2l2-2c0.4-0.5 1.4-0.5 1.9 0zm0-25.2c0.6 0.5 0.6 1.4 0 2-0.5 0.5-1.5 0.5-1.9 0l-2-2c-0.6-0.5-0.6-1.4 0-2 0.5-0.5 1.4-0.5 2 0zm27.1 27.2c0.6 0.6 0.6 1.5 0 2-0.4 0.5-1.4 0.5-1.9 0l-1.9-2c-0.6-0.5-0.6-1.3 0-1.9 0.5-0.5 1.3-0.5 1.9 0zm0-29.1c0.5 0.5 0.5 1.3 0 1.9l-1.9 1.9c-0.6 0.6-1.4 0.6-2 0-0.5-0.5-0.5-1.4 0-1.9l2-1.9c0.5-0.6 1.3-0.6 1.9 0z"/>
		</g>
	</g>
</svg>