<svg xmlns="http://www.w3.org/2000/svg" width="48" height="48" version="1.2"><defs><radialGradient id="b" cx="25.6" cy="40.3" r="39.7" gradientUnits="userSpaceOnUse"><stop offset="0" stop-color="#fbb03b"/><stop offset=".2" stop-color="#f7bf3b"/><stop offset=".4" stop-color="#f4ce3c"/><stop offset=".6" stop-color="#f0de3c"/><stop offset=".8" stop-color="#eded3d"/></radialGradient><clipPath id="a" clipPathUnits="userSpaceOnUse"><path d="M2 2h44v44H2z"/></clipPath></defs><g clip-path="url(#a)"><path fill="url(#b)" d="M24 38.7a14.7 14.7 0 1 1 0-29.4 14.7 14.7 0 0 1 0 29.4z"/><path fill="#f5c23e" fill-rule="evenodd" d="M25.4 3.4v2.7c0 .8-.7 1.4-1.4 1.4s-1.4-.6-1.4-1.4V3.4c0-.8.7-1.4 1.4-1.4s1.4.6 1.4 1.4zM6.1 22.6c.8 0 1.4.7 1.4 1.4s-.6 1.4-1.4 1.4H3.4c-.8 0-1.4-.7-1.4-1.4s.6-1.4 1.4-1.4zM40.5 24c0-.7.6-1.4 1.3-1.4h2.8c.7 0 1.4.7 1.4 1.4s-.7 1.4-1.4 1.4h-2.8c-.7 0-1.3-.7-1.3-1.4zM25.3 41.9v2.7c0 .8-.6 1.4-1.3 1.4-.8 0-1.4-.6-1.4-1.4v-2.7c0-.8.6-1.4 1.4-1.4.7 0 1.3.6 1.3 1.4zm-13-6.3c.6.6.6 1.5 0 2l-1.9 2c-.6.5-1.5.5-2 0-.6-.6-.6-1.5 0-2l2-2c.4-.5 1.4-.5 1.9 0zm0-25.2c.6.5.6 1.4 0 2-.5.5-1.5.5-1.9 0l-2-2c-.6-.5-.6-1.4 0-2 .5-.5 1.4-.5 2 0zm27.1 27.2c.6.6.6 1.5 0 2-.4.5-1.4.5-1.9 0l-1.9-2c-.6-.5-.6-1.3 0-1.9.5-.5 1.3-.5 1.9 0zm0-29.1c.5.5.5 1.3 0 1.9l-1.9 1.9c-.6.6-1.4.6-2 0-.5-.5-.5-1.4 0-1.9l2-1.9c.5-.6 1.3-.6 1.9 0z"/></g></svg>
