<svg version="1.2" xmlns="http://www.w3.org/2000/svg" viewBox="0 0 48 48" width="48" height="48">
	<title>02d-pdf</title>
	<defs>
		<clipPath clipPathUnits="userSpaceOnUse" id="cp1">
			<path d="m0 0h48v48h-48z"/>
		</clipPath>
		<radialGradient id="g1" cx="25.4" cy="38.4" r="35.5" gradientUnits="userSpaceOnUse">
			<stop offset="0" stop-color="#fbb03b"/>
			<stop offset=".2" stop-color="#f7bf3b"/>
			<stop offset=".4" stop-color="#f4ce3c"/>
			<stop offset=".6" stop-color="#f0de3c"/>
			<stop offset=".8" stop-color="#eded3d"/>
		</radialGradient>
		<linearGradient id="g2" x1="-12" y1="30" x2="-12" y2="44" gradientUnits="userSpaceOnUse">
			<stop offset="0" stop-color="#efefef"/>
			<stop offset=".2" stop-color="#ebebeb"/>
			<stop offset=".4" stop-color="#e7e7e7"/>
			<stop offset=".6" stop-color="#e2e2e2"/>
			<stop offset=".8" stop-color="#dedede"/>
		</linearGradient>
	</defs>
	<style>
		.s0 { fill: url(#g1) } 
		.s1 { fill: #f5c23e } 
		.s2 { fill: url(#g2) } 
	</style>
	<g id="Page 1" clip-path="url(#cp1)">
		<path id="Path 1" class="s0" d="m26.4 35.5c-0.7-0.8-1.7-1.4-2.8-1.8-0.6-1.5-1.7-2.8-3-3.8-1.6-1.2-3.6-1.9-5.8-1.9q-1.7 0-3.3 0.6c-0.5-1.4-0.8-3-0.8-4.6 0-7.4 5.9-13.3 13.3-13.3 7.4 0 13.3 5.9 13.3 13.3 0 6.2-4.2 11.4-10 12.9q-0.3-0.8-0.9-1.4z"/>
		<path id="Path 4" fill-rule="evenodd" class="s1" d="m22.8 5.3c-0.1-0.7 0.5-1.3 1.2-1.3 0.7 0 1.2 0.6 1.2 1.3v2.5c0 0.6-0.5 1.2-1.2 1.2-0.7 0-1.3-0.6-1.3-1.2zm-18.7 18.7c0-0.7 0.6-1.2 1.2-1.2h2.5c0.7 0 1.3 0.5 1.3 1.2 0 0.7-0.6 1.3-1.3 1.3h-2.5c-0.6 0-1.2-0.6-1.2-1.3zm38.8-1.2c0.6 0 1.2 0.5 1.2 1.2 0 0.7-0.6 1.3-1.2 1.3h-2.5c-0.7 0-1.3-0.6-1.3-1.3 0-0.7 0.6-1.2 1.3-1.2zm-29.4-11.2c0.5 0.5 0.5 1.3 0 1.8-0.5 0.5-1.3 0.5-1.8 0l-1.7-1.8c-0.5-0.5-0.5-1.3 0-1.7 0.4-0.5 1.2-0.5 1.7 0zm24.8 24.7c0.5 0.5 0.5 1.3 0 1.8-0.5 0.5-1.3 0.5-1.8 0l-1.8-1.8c-0.4-0.5-0.4-1.3 0-1.8 0.5-0.4 1.3-0.4 1.8 0zm0-26.5c0.5 0.5 0.5 1.3 0 1.8l-1.8 1.8c-0.4 0.4-1.2 0.4-1.7 0-0.5-0.5-0.5-1.3 0-1.8l1.7-1.8c0.5-0.5 1.3-0.5 1.8 0z"/>
		<path id="Path 5" class="s2" d="m22.1 35.4c2.2 0.3 3.9 2.1 3.9 4.3 0 2.4-2 4.3-4.4 4.3h-14.4c-2.9-0.2-5.2-2.6-5.2-5.5 0-3.1 2.5-5.5 5.7-5.5q0.5 0 1 0.1c1.4-1.9 3.6-3.1 6.1-3.1 3.5 0 6.4 2.3 7.3 5.4z"/>
	</g>
</svg>