<svg xmlns="http://www.w3.org/2000/svg" width="48" height="48" version="1.2"><defs><radialGradient id="b" cx="25.4" cy="38.4" r="35.5" gradientUnits="userSpaceOnUse"><stop offset="0" stop-color="#fbb03b"/><stop offset=".2" stop-color="#f7bf3b"/><stop offset=".4" stop-color="#f4ce3c"/><stop offset=".6" stop-color="#f0de3c"/><stop offset=".8" stop-color="#eded3d"/></radialGradient><linearGradient id="c" x1="-12" x2="-12" y1="30" y2="44" gradientUnits="userSpaceOnUse"><stop offset="0" stop-color="#efefef"/><stop offset=".2" stop-color="#ebebeb"/><stop offset=".4" stop-color="#e7e7e7"/><stop offset=".6" stop-color="#e2e2e2"/><stop offset=".8" stop-color="#dedede"/></linearGradient><clipPath id="a" clipPathUnits="userSpaceOnUse"><path d="M0 0h48v48H0z"/></clipPath></defs><g clip-path="url(#a)"><path fill="url(#b)" d="M26.4 35.5a6.8 6.8 0 0 0-2.8-1.8 9.6 9.6 0 0 0-8.8-5.7q-1.7 0-3.3.6A13.2 13.2 0 0 1 24 10.7a13.3 13.3 0 0 1 3.3 26.2q-.3-.8-.9-1.4z"/><path fill="#f5c23e" fill-rule="evenodd" d="M22.8 5.3c-.1-.7.5-1.3 1.2-1.3s1.2.6 1.2 1.3v2.5c0 .6-.5 1.2-1.2 1.2s-1.3-.6-1.3-1.2zM4.1 24c0-.7.6-1.2 1.2-1.2h2.5c.7 0 1.3.5 1.3 1.2s-.6 1.3-1.3 1.3H5.3c-.6 0-1.2-.6-1.2-1.3zm38.8-1.2c.6 0 1.2.5 1.2 1.2s-.6 1.3-1.2 1.3h-2.5c-.7 0-1.3-.6-1.3-1.3 0-.7.6-1.2 1.3-1.2zM13.5 11.6c.5.5.5 1.3 0 1.8s-1.3.5-1.8 0L10 11.6c-.5-.5-.5-1.3 0-1.7.4-.5 1.2-.5 1.7 0zm24.8 24.7c.5.5.5 1.3 0 1.8s-1.3.5-1.8 0l-1.8-1.8c-.4-.5-.4-1.3 0-1.8.5-.4 1.3-.4 1.8 0zm0-26.5c.5.5.5 1.3 0 1.8l-1.8 1.8c-.4.4-1.2.4-1.7 0-.5-.5-.5-1.3 0-1.8l1.7-1.8c.5-.5 1.3-.5 1.8 0z"/><path fill="url(#c)" d="M22.1 35.4c2.2.3 3.9 2.1 3.9 4.3 0 2.4-2 4.3-4.4 4.3H7.2A5.6 5.6 0 0 1 2 38.5C2 35.4 4.5 33 7.7 33l1 .1a7.5 7.5 0 0 1 6.1-3.1c3.5 0 6.4 2.3 7.3 5.4z"/></g></svg>
