<svg version="1.2" xmlns="http://www.w3.org/2000/svg" viewBox="0 0 48 48" width="48" height="48">
	<title>02n-pdf</title>
	<defs>
		<clipPath clipPathUnits="userSpaceOnUse" id="cp1">
			<path d="m0 0h48v48h-48z"/>
		</clipPath>
		<radialGradient id="g1" cx="29.9" cy="5.2" r="39.1" gradientUnits="userSpaceOnUse">
			<stop offset="0" stop-color="#a141d5"/>
			<stop offset=".2" stop-color="#a251c5"/>
			<stop offset=".4" stop-color="#a361b5"/>
			<stop offset=".6" stop-color="#a470a5"/>
			<stop offset=".8" stop-color="#a68095"/>
		</radialGradient>
		<linearGradient id="g2" x1="-10" y1="26" x2="-10" y2="40" gradientUnits="userSpaceOnUse">
			<stop offset="0" stop-color="#efefef"/>
			<stop offset=".2" stop-color="#ebebeb"/>
			<stop offset=".4" stop-color="#e7e7e7"/>
			<stop offset=".6" stop-color="#e2e2e2"/>
			<stop offset=".8" stop-color="#dedede"/>
		</linearGradient>
	</defs>
	<style>
		.s0 { fill: url(#g1) } 
		.s1 { fill: url(#g2) } 
	</style>
	<g id="Page 1" clip-path="url(#cp1)">
		<path id="Path 1" class="s0" d="m33.5 12.5c0 6 4.9 10.9 10.9 10.9q0.8 0 1.6-0.1c-0.5 3-1.9 6-4.2 8.3-3.3 3.2-7.6 4.7-11.8 4.4q0-0.2 0-0.3c0-1.6-0.6-3.1-1.6-4.2-0.7-0.8-1.7-1.4-2.8-1.8-0.6-1.5-1.7-2.8-3-3.8-1.6-1.2-3.6-1.9-5.8-1.9q-0.2 0-0.5 0c-1-4.8 0.4-9.9 4.1-13.6 4-3.9 9.6-5.2 14.6-3.9l0.2 0.1v0.1c-1.1 1.6-1.7 3.7-1.7 5.8z"/>
		<path id="Path 3" class="s1" d="m24.1 31.4c2.2 0.3 3.9 2.1 3.9 4.3 0 2.4-2 4.3-4.4 4.3h-14.4c-2.9-0.2-5.2-2.6-5.2-5.5 0-3.1 2.5-5.5 5.7-5.5q0.5 0 1 0.1c1.4-1.9 3.6-3.1 6.1-3.1 3.5 0 6.4 2.3 7.3 5.4z"/>
	</g>
</svg>