<svg xmlns="http://www.w3.org/2000/svg" width="48" height="48" version="1.2"><defs><radialGradient id="b" cx="29.9" cy="5.2" r="39.1" gradientUnits="userSpaceOnUse"><stop offset="0" stop-color="#a141d5"/><stop offset=".2" stop-color="#a251c5"/><stop offset=".4" stop-color="#a361b5"/><stop offset=".6" stop-color="#a470a5"/><stop offset=".8" stop-color="#a68095"/></radialGradient><linearGradient id="c" x1="-10" x2="-10" y1="26" y2="40" gradientUnits="userSpaceOnUse"><stop offset="0" stop-color="#efefef"/><stop offset=".2" stop-color="#ebebeb"/><stop offset=".4" stop-color="#e7e7e7"/><stop offset=".6" stop-color="#e2e2e2"/><stop offset=".8" stop-color="#dedede"/></linearGradient><clipPath id="a" clipPathUnits="userSpaceOnUse"><path d="M0 0h48v48H0z"/></clipPath></defs><g clip-path="url(#a)"><path fill="url(#b)" d="M33.5 12.5a11 11 0 0 0 10.9 10.9l1.6-.1c-.5 3-1.9 6-4.2 8.3A15.4 15.4 0 0 1 30 36v-.3a6.3 6.3 0 0 0-4.4-6 9.6 9.6 0 0 0-8.8-5.7h-.5c-1-4.8.4-9.9 4.1-13.6 4-3.9 9.6-5.2 14.6-3.9l.2.1v.1a10.4 10.4 0 0 0-1.7 5.8z"/><path fill="url(#c)" d="M24.1 31.4c2.2.3 3.9 2.1 3.9 4.3 0 2.4-2 4.3-4.4 4.3H9.2A5.6 5.6 0 0 1 4 34.5C4 31.4 6.5 29 9.7 29l1 .1a7.5 7.5 0 0 1 6.1-3.1c3.5 0 6.4 2.3 7.3 5.4z"/></g></svg>
