<svg xmlns="http://www.w3.org/2000/svg" width="48" height="48" version="1.2"><defs><radialGradient id="c" cx="32.9" cy="7.4" r="30.2" gradientUnits="userSpaceOnUse"><stop offset="0" stop-color="#a141d5"/><stop offset=".2" stop-color="#a251c5"/><stop offset=".4" stop-color="#a361b5"/><stop offset=".6" stop-color="#a470a5"/><stop offset=".8" stop-color="#a68095"/></radialGradient><linearGradient id="b" x1="-20" x2="-20" y1="20" y2="42" gradientUnits="userSpaceOnUse"><stop offset="0" stop-color="#efefef"/><stop offset=".2" stop-color="#ebebeb"/><stop offset=".4" stop-color="#e7e7e7"/><stop offset=".6" stop-color="#e2e2e2"/><stop offset=".8" stop-color="#dedede"/></linearGradient><clipPath id="a" clipPathUnits="userSpaceOnUse"><path d="M0 0h48v48H0z"/></clipPath></defs><g clip-path="url(#a)"><path fill="url(#b)" d="M32.2 28.5c3.3.4 5.8 3.3 5.8 6.7 0 3.8-3 6.8-6.6 6.8H9.9A8.6 8.6 0 0 1 2 33.3c0-4.8 3.8-8.6 8.5-8.6l1.5.1c2.1-2.9 5.5-4.8 9.2-4.8 5.3 0 9.7 3.6 11 8.5z"/><path fill="url(#c)" d="M36 13.2c0 4.8 3.9 8.7 8.7 8.7l1.3-.1c-.4 2.4-1.5 4.8-3.4 6.7a11.5 11.5 0 0 1-3.7 2.5l-1-1.6a9.3 9.3 0 0 0-4.1-2.6c-.9-2.4-2.5-4.5-4.5-6-2-1.6-4.4-2.6-7.1-2.8.4-2.4 1.5-4.6 3.3-6.5 3.2-3.1 7.7-4.2 11.7-3.1l.2.1c-.9 1.4-1.4 3-1.4 4.7z"/></g></svg>
