<svg version="1.2" xmlns="http://www.w3.org/2000/svg" viewBox="0 0 48 48" width="48" height="48">
	<title>03n-pdf</title>
	<defs>
		<clipPath clipPathUnits="userSpaceOnUse" id="cp1">
			<path d="m0 0h48v48h-48z"/>
		</clipPath>
		<linearGradient id="g1" x1="-20" y1="20" x2="-20" y2="42" gradientUnits="userSpaceOnUse">
			<stop offset="0" stop-color="#efefef"/>
			<stop offset=".2" stop-color="#ebebeb"/>
			<stop offset=".4" stop-color="#e7e7e7"/>
			<stop offset=".6" stop-color="#e2e2e2"/>
			<stop offset=".8" stop-color="#dedede"/>
		</linearGradient>
		<radialGradient id="g2" cx="32.9" cy="7.4" r="30.2" gradientUnits="userSpaceOnUse">
			<stop offset="0" stop-color="#a141d5"/>
			<stop offset=".2" stop-color="#a251c5"/>
			<stop offset=".4" stop-color="#a361b5"/>
			<stop offset=".6" stop-color="#a470a5"/>
			<stop offset=".8" stop-color="#a68095"/>
		</radialGradient>
	</defs>
	<style>
		.s0 { fill: url(#g1) } 
		.s1 { fill: url(#g2) } 
	</style>
	<g id="Page 1" clip-path="url(#cp1)">
		<path id="Path 1" class="s0" d="m32.2 28.5c3.3 0.4 5.8 3.3 5.8 6.7 0 3.8-3 6.8-6.6 6.8h-21.5c-4.4-0.3-7.9-4.1-7.9-8.7 0-4.8 3.8-8.6 8.5-8.6q0.8 0 1.5 0.1c2.1-2.9 5.5-4.8 9.2-4.8 5.3 0 9.7 3.6 11 8.5z"/>
		<path id="Path 3" class="s1" d="m36 13.2c0 4.8 3.9 8.7 8.7 8.7q0.7 0 1.3-0.1c-0.4 2.4-1.5 4.8-3.4 6.7-1.1 1.1-2.3 1.9-3.7 2.5q-0.4-0.8-1-1.6c-1.1-1.2-2.5-2.1-4.1-2.6-0.9-2.4-2.5-4.5-4.5-6-2-1.6-4.4-2.6-7.1-2.8 0.4-2.4 1.5-4.6 3.3-6.5 3.2-3.1 7.7-4.2 11.7-3.1l0.2 0.1c-0.9 1.4-1.4 3-1.4 4.7z"/>
	</g>
</svg>