<svg version="1.2" xmlns="http://www.w3.org/2000/svg" viewBox="0 0 48 48" width="48" height="48">
	<title>04d-pdf</title>
	<defs>
		<clipPath clipPathUnits="userSpaceOnUse" id="cp1">
			<path d="m0 0h48v48h-48z"/>
		</clipPath>
		<linearGradient id="g1" x1="9" y1="4.4" x2="9" y2="21.6" gradientUnits="userSpaceOnUse">
			<stop offset="0" stop-color="#e3e3e3"/>
			<stop offset=".2" stop-color="#dbdbdb"/>
			<stop offset=".4" stop-color="#d2d2d2"/>
			<stop offset=".6" stop-color="#cacaca"/>
			<stop offset=".8" stop-color="#c1c1c1"/>
		</linearGradient>
		<linearGradient id="g2" x1="-28" y1="12" x2="-28" y2="40" gradientUnits="userSpaceOnUse">
			<stop offset="0" stop-color="#efefef"/>
			<stop offset=".2" stop-color="#ebebeb"/>
			<stop offset=".4" stop-color="#e7e7e7"/>
			<stop offset=".6" stop-color="#e2e2e2"/>
			<stop offset=".8" stop-color="#dedede"/>
		</linearGradient>
	</defs>
	<style>
		.s0 { fill: url(#g1) } 
		.s1 { fill: url(#g2) } 
	</style>
	<g id="Page 1" clip-path="url(#cp1)">
		<path id="Path 1" class="s0" d="m33 4.4c3.6 0 6.5 2.6 7 6q0.9-0.3 1.8-0.3c3.3 0 5.9 2.6 5.9 5.8 0 2.7-1.9 5-4.4 5.7q-0.7-0.3-1.5-0.5c-1.1-3.1-3.2-5.8-5.8-7.7-2.7-2-6.2-3.3-9.9-3.4 0.7-3.2 3.5-5.6 6.9-5.6z"/>
		<path id="Path 2" class="s1" d="m40.3 22.8c4.3 0.6 7.7 4.2 7.7 8.6 0 4.7-4 8.6-8.8 8.6h-28.7c-5.9-0.4-10.5-5.2-10.5-11 0-6.1 5.1-11.1 11.3-11.1q1.1 0 2.1 0.2c2.7-3.7 7.2-6.1 12.3-6.1 6.9 0 12.8 4.6 14.6 10.8z"/>
	</g>
</svg>