<svg xmlns="http://www.w3.org/2000/svg" width="48" height="48" version="1.2"><defs><linearGradient id="b" x1="9" x2="9" y1="4.4" y2="21.6" gradientUnits="userSpaceOnUse"><stop offset="0" stop-color="#e3e3e3"/><stop offset=".2" stop-color="#dbdbdb"/><stop offset=".4" stop-color="#d2d2d2"/><stop offset=".6" stop-color="#cacaca"/><stop offset=".8" stop-color="#c1c1c1"/></linearGradient><linearGradient id="c" x1="-28" x2="-28" y1="12" y2="40" gradientUnits="userSpaceOnUse"><stop offset="0" stop-color="#efefef"/><stop offset=".2" stop-color="#ebebeb"/><stop offset=".4" stop-color="#e7e7e7"/><stop offset=".6" stop-color="#e2e2e2"/><stop offset=".8" stop-color="#dedede"/></linearGradient><clipPath id="a" clipPathUnits="userSpaceOnUse"><path d="M0 0h48v48H0z"/></clipPath></defs><g clip-path="url(#a)"><path fill="url(#b)" d="M33 4.4a7 7 0 0 1 7 6q.9-.3 1.8-.3c3.3 0 5.9 2.6 5.9 5.8a6 6 0 0 1-4.4 5.7l-1.5-.5a16.5 16.5 0 0 0-5.8-7.7c-2.7-2-6.2-3.3-9.9-3.4A7 7 0 0 1 33 4.4z"/><path fill="url(#c)" d="M40.3 22.8c4.3.6 7.7 4.2 7.7 8.6 0 4.7-4 8.6-8.8 8.6H10.5A11.1 11.1 0 0 1 0 29c0-6.1 5.1-11.1 11.3-11.1q1.1 0 2.1.2c2.7-3.7 7.2-6.1 12.3-6.1 6.9 0 12.8 4.6 14.6 10.8z"/></g></svg>
