<svg version="1.2" xmlns="http://www.w3.org/2000/svg" viewBox="0 0 48 48" width="48" height="48">
	<title>09d-pdf</title>
	<defs>
		<clipPath clipPathUnits="userSpaceOnUse" id="cp1">
			<path d="m0 0h48v48h-48z"/>
		</clipPath>
		<linearGradient id="g1" x1="-10" y1="30" x2="-10" y2="46" gradientUnits="userSpaceOnUse">
			<stop offset="0" stop-color="#3fcef5"/>
			<stop offset=".2" stop-color="#32bcf5"/>
			<stop offset=".4" stop-color="#26a9f5"/>
			<stop offset=".6" stop-color="#1997f5"/>
			<stop offset=".8" stop-color="#0c84f5"/>
		</linearGradient>
		<linearGradient id="g2" x1="-28" y1="0" x2="-28" y2="28" gradientUnits="userSpaceOnUse">
			<stop offset="0" stop-color="#efefef"/>
			<stop offset=".2" stop-color="#ebebeb"/>
			<stop offset=".4" stop-color="#e7e7e7"/>
			<stop offset=".6" stop-color="#e2e2e2"/>
			<stop offset=".8" stop-color="#dedede"/>
		</linearGradient>
	</defs>
	<style>
		.s0 { fill: url(#g1) } 
		.s1 { fill: url(#g2) } 
	</style>
	<g id="Page 1" clip-path="url(#cp1)">
		<path id="Path 1" fill-rule="evenodd" class="s0" d="m6 32c0-1.1 0.9-2 2-2 1.1 0 2 0.9 2 2v4c0 1.1-0.9 2-2 2-1.1 0-2-0.9-2-2zm12 12c0 1.1-0.9 2-2 2-1.1 0-2-0.9-2-2v-14h4zm8-12v4c0 1.1-0.9 2-2 2-1.1 0-2-0.9-2-2v-4c0-1.1 0.9-2 2-2 1.1 0 2 0.9 2 2zm4-2h4v14c0 1.1-0.9 2-2 2-1.1 0-2-0.9-2-2zm12 2v4c0 1.1-0.9 2-2 2-1.1 0-2-0.9-2-2v-4c0-1.1 0.9-2 2-2 1.1 0 2 0.9 2 2zm-18 14c-1.1 0-2-0.9-2-2v-4h4v4c0 1.1-0.9 2-2 2zm18-6v4c0 1.1-0.9 2-2 2-1.1 0-2-0.9-2-2v-4zm-32 4c0 1.1-0.9 2-2 2-1.1 0-2-0.9-2-2v-4h4z"/>
		<path id="Path 2" class="s1" d="m40.3 10.8c4.3 0.6 7.7 4.2 7.7 8.6 0 4.7-4 8.6-8.8 8.6h-28.7c-5.9-0.4-10.5-5.2-10.5-11 0-6.1 5.1-11.1 11.3-11.1q1.1 0 2.1 0.2c2.7-3.7 7.2-6.1 12.3-6.1 6.9 0 12.8 4.6 14.6 10.8z"/>
	</g>
</svg>