<svg xmlns="http://www.w3.org/2000/svg" width="48" height="48" version="1.2"><defs><linearGradient id="b" x1="-10" x2="-10" y1="30" y2="46" gradientUnits="userSpaceOnUse"><stop offset="0" stop-color="#3fcef5"/><stop offset=".2" stop-color="#32bcf5"/><stop offset=".4" stop-color="#26a9f5"/><stop offset=".6" stop-color="#1997f5"/><stop offset=".8" stop-color="#0c84f5"/></linearGradient><linearGradient id="c" x1="-28" x2="-28" y1="0" y2="28" gradientUnits="userSpaceOnUse"><stop offset="0" stop-color="#efefef"/><stop offset=".2" stop-color="#ebebeb"/><stop offset=".4" stop-color="#e7e7e7"/><stop offset=".6" stop-color="#e2e2e2"/><stop offset=".8" stop-color="#dedede"/></linearGradient><clipPath id="a" clipPathUnits="userSpaceOnUse"><path d="M0 0h48v48H0z"/></clipPath></defs><g clip-path="url(#a)"><path fill="url(#b)" fill-rule="evenodd" d="M6 32c0-1.1.9-2 2-2a2 2 0 0 1 2 2v4a2 2 0 0 1-2 2 2 2 0 0 1-2-2zm12 12a2 2 0 0 1-2 2 2 2 0 0 1-2-2V30h4zm8-12v4a2 2 0 0 1-2 2 2 2 0 0 1-2-2v-4c0-1.1.9-2 2-2a2 2 0 0 1 2 2zm4-2h4v14a2 2 0 0 1-2 2 2 2 0 0 1-2-2zm12 2v4a2 2 0 0 1-2 2 2 2 0 0 1-2-2v-4c0-1.1.9-2 2-2a2 2 0 0 1 2 2zM24 46a2 2 0 0 1-2-2v-4h4v4a2 2 0 0 1-2 2zm18-6v4a2 2 0 0 1-2 2 2 2 0 0 1-2-2v-4zm-32 4a2 2 0 0 1-2 2 2 2 0 0 1-2-2v-4h4z"/><path fill="url(#c)" d="M40.3 10.8c4.3.6 7.7 4.2 7.7 8.6 0 4.7-4 8.6-8.8 8.6H10.5A11.1 11.1 0 0 1 0 17C0 10.9 5.1 5.9 11.3 5.9q1.1 0 2.1.2C16.1 2.4 20.6 0 25.7 0c6.9 0 12.8 4.6 14.6 10.8z"/></g></svg>
