<svg version="1.2" xmlns="http://www.w3.org/2000/svg" viewBox="0 0 48 48" width="48" height="48">
	<title>10d-pdf</title>
	<defs>
		<clipPath clipPathUnits="userSpaceOnUse" id="cp1">
			<path d="m0 0h48v48h-48z"/>
		</clipPath>
		<linearGradient id="g1" x1="-6.6" y1="36.4" x2="-6.6" y2="48" gradientUnits="userSpaceOnUse">
			<stop offset="0" stop-color="#3fcef5"/>
			<stop offset=".2" stop-color="#32bcf5"/>
			<stop offset=".4" stop-color="#26a9f5"/>
			<stop offset=".6" stop-color="#1997f5"/>
			<stop offset=".8" stop-color="#0c84f5"/>
		</linearGradient>
		<radialGradient id="g2" cx="31.7" cy="24.6" r="26.8" gradientUnits="userSpaceOnUse">
			<stop offset="0" stop-color="#fbb03b"/>
			<stop offset=".2" stop-color="#f7bf3b"/>
			<stop offset=".4" stop-color="#f4ce3c"/>
			<stop offset=".6" stop-color="#f0de3c"/>
			<stop offset=".8" stop-color="#eded3d"/>
		</radialGradient>
		<linearGradient id="g3" x1="-20" y1="14" x2="-20" y2="36" gradientUnits="userSpaceOnUse">
			<stop offset="0" stop-color="#efefef"/>
			<stop offset=".2" stop-color="#ebebeb"/>
			<stop offset=".4" stop-color="#e7e7e7"/>
			<stop offset=".6" stop-color="#e2e2e2"/>
			<stop offset=".8" stop-color="#dedede"/>
		</linearGradient>
	</defs>
	<style>
		.s0 { fill: url(#g1) } 
		.s1 { fill: url(#g2) } 
		.s2 { fill: #f5c23e } 
		.s3 { fill: url(#g3) } 
	</style>
	<g id="Page 1" clip-path="url(#cp1)">
		<path id="Path 1" class="s0" d="m8 37.7v2.8c0 0.8-0.7 1.5-1.5 1.5-0.8 0-1.5-0.7-1.5-1.5v-4.1q1.4 0.9 3 1.3zm7 0.3v6.5c0 0.8-0.7 1.5-1.5 1.5-0.8 0-1.5-0.7-1.5-1.5v-6.5zm7 0v8.5c0 0.8-0.7 1.5-1.5 1.5-0.8 0-1.5-0.7-1.5-1.5v-8.5zm7 0v6.5c0 0.8-0.7 1.5-1.5 1.5-0.8 0-1.5-0.7-1.5-1.5v-6.5zm7-1.4v3.9c0 0.8-0.7 1.5-1.5 1.5-0.8 0-1.5-0.7-1.5-1.5v-2.7q1.6-0.3 3-1.2z"/>
		<path id="Path 2" class="s1" d="m37.9 23.4c-1.1-1.2-2.5-2.1-4.1-2.6-0.9-2.4-2.5-4.5-4.5-6-2.2-1.8-5-2.8-8.1-2.8q-0.9 0-1.8 0.1c1.2-4.8 5.7-8.4 10.9-8.4 6.3 0 11.4 5 11.4 11.3 0 3.4-1.5 6.4-3.8 8.5q0 0 0-0.1z"/>
		<path id="Path 5" fill-rule="evenodd" class="s2" d="m31.4 1.1v0.1c0 0.6-0.5 1-1.1 1-0.6 0-1-0.4-1-1v-0.1c0-0.6 0.4-1.1 1-1.1 0.6 0 1.1 0.5 1.1 1.1zm12.9 12.8c0.6 0 1 0.5 1 1.1 0 0.6-0.4 1.1-1 1.1h-0.2c-0.5 0-1-0.5-1-1.1 0-0.6 0.5-1.1 1-1.1zm-22.9-9.4c0.4 0.4 0.4 1.1 0 1.5-0.4 0.4-1.1 0.4-1.5 0l-1.5-1.5c-0.4-0.4-0.4-1.1 0-1.5 0.4-0.4 1.1-0.4 1.5 0zm21 21c0.4 0.4 0.4 1.1 0 1.5-0.4 0.4-1.1 0.4-1.5 0l-1.5-1.5c-0.4-0.4-0.4-1.1 0-1.5 0.4-0.4 1.1-0.4 1.5 0zm0-22.5c0.4 0.4 0.4 1.1 0 1.5l-1.5 1.5c-0.4 0.4-1.1 0.4-1.5 0-0.4-0.4-0.4-1.1 0-1.5l1.5-1.5c0.4-0.4 1.1-0.4 1.5 0z"/>
		<path id="Path 6" class="s3" d="m32.2 22.5c3.3 0.4 5.8 3.3 5.8 6.7 0 3.8-3 6.8-6.6 6.8h-21.5c-4.4-0.3-7.9-4.1-7.9-8.7 0-4.8 3.8-8.6 8.5-8.6q0.8 0 1.5 0.1c2.1-2.9 5.5-4.8 9.2-4.8 5.3 0 9.7 3.6 11 8.5z"/>
	</g>
</svg>