<svg xmlns="http://www.w3.org/2000/svg" width="48" height="48" version="1.2"><defs><linearGradient id="b" x1="-6.6" x2="-6.6" y1="36.4" y2="48" gradientUnits="userSpaceOnUse"><stop offset="0" stop-color="#3fcef5"/><stop offset=".2" stop-color="#32bcf5"/><stop offset=".4" stop-color="#26a9f5"/><stop offset=".6" stop-color="#1997f5"/><stop offset=".8" stop-color="#0c84f5"/></linearGradient><linearGradient id="d" x1="-20" x2="-20" y1="14" y2="36" gradientUnits="userSpaceOnUse"><stop offset="0" stop-color="#efefef"/><stop offset=".2" stop-color="#ebebeb"/><stop offset=".4" stop-color="#e7e7e7"/><stop offset=".6" stop-color="#e2e2e2"/><stop offset=".8" stop-color="#dedede"/></linearGradient><radialGradient id="c" cx="31.7" cy="24.6" r="26.8" gradientUnits="userSpaceOnUse"><stop offset="0" stop-color="#fbb03b"/><stop offset=".2" stop-color="#f7bf3b"/><stop offset=".4" stop-color="#f4ce3c"/><stop offset=".6" stop-color="#f0de3c"/><stop offset=".8" stop-color="#eded3d"/></radialGradient><clipPath id="a" clipPathUnits="userSpaceOnUse"><path d="M0 0h48v48H0z"/></clipPath></defs><g clip-path="url(#a)"><path fill="url(#b)" d="M8 37.7v2.8c0 .8-.7 1.5-1.5 1.5S5 41.3 5 40.5v-4.1q1.4.9 3 1.3zm7 .3v6.5c0 .8-.7 1.5-1.5 1.5s-1.5-.7-1.5-1.5V38zm7 0v8.5c0 .8-.7 1.5-1.5 1.5s-1.5-.7-1.5-1.5V38zm7 0v6.5c0 .8-.7 1.5-1.5 1.5s-1.5-.7-1.5-1.5V38zm7-1.4v3.9c0 .8-.7 1.5-1.5 1.5s-1.5-.7-1.5-1.5v-2.7q1.6-.3 3-1.2z"/><path fill="url(#c)" d="M37.9 23.4a9.3 9.3 0 0 0-4.1-2.6c-.9-2.4-2.5-4.5-4.5-6-2.2-1.8-5-2.8-8.1-2.8l-1.8.1c1.2-4.8 5.7-8.4 10.9-8.4a11.3 11.3 0 0 1 7.6 19.8v-.1z"/><path fill="#f5c23e" fill-rule="evenodd" d="M31.4 1.1v.1c0 .6-.5 1-1.1 1-.6 0-1-.4-1-1v-.1c0-.6.4-1.1 1-1.1s1.1.5 1.1 1.1zm12.9 12.8c.6 0 1 .5 1 1.1 0 .6-.4 1.1-1 1.1h-.2c-.5 0-1-.5-1-1.1 0-.6.5-1.1 1-1.1zM21.4 4.5a1 1 0 0 1 0 1.5 1 1 0 0 1-1.5 0l-1.5-1.5a1 1 0 0 1 0-1.5 1 1 0 0 1 1.5 0zm21 21a1 1 0 0 1 0 1.5 1 1 0 0 1-1.5 0l-1.5-1.5a1 1 0 0 1 0-1.5 1 1 0 0 1 1.5 0zm0-22.5a1 1 0 0 1 0 1.5L40.9 6a1 1 0 0 1-1.5 0 1 1 0 0 1 0-1.5L40.9 3a1 1 0 0 1 1.5 0z"/><path fill="url(#d)" d="M32.2 22.5c3.3.4 5.8 3.3 5.8 6.7 0 3.8-3 6.8-6.6 6.8H9.9A8.6 8.6 0 0 1 2 27.3c0-4.8 3.8-8.6 8.5-8.6l1.5.1c2.1-2.9 5.5-4.8 9.2-4.8 5.3 0 9.7 3.6 11 8.5z"/></g></svg>
