<svg xmlns="http://www.w3.org/2000/svg" width="48" height="48" version="1.2"><defs><linearGradient id="b" x1="-8.6" x2="-8.6" y1="34.4" y2="48" gradientUnits="userSpaceOnUse"><stop offset="0" stop-color="#3fcef5"/><stop offset=".2" stop-color="#32bcf5"/><stop offset=".4" stop-color="#26a9f5"/><stop offset=".6" stop-color="#1997f5"/><stop offset=".8" stop-color="#0c84f5"/></linearGradient><linearGradient id="d" x1="-20" x2="-20" y1="12" y2="34" gradientUnits="userSpaceOnUse"><stop offset="0" stop-color="#efefef"/><stop offset=".2" stop-color="#ebebeb"/><stop offset=".4" stop-color="#e7e7e7"/><stop offset=".6" stop-color="#e2e2e2"/><stop offset=".8" stop-color="#dedede"/></linearGradient><radialGradient id="c" cx="32.9" cy="-.6" r="30.2" gradientUnits="userSpaceOnUse"><stop offset="0" stop-color="#a141d5"/><stop offset=".2" stop-color="#a251c5"/><stop offset=".4" stop-color="#a361b5"/><stop offset=".6" stop-color="#a470a5"/><stop offset=".8" stop-color="#a68095"/></radialGradient><clipPath id="a" clipPathUnits="userSpaceOnUse"><path d="M0 0h48v48H0z"/></clipPath></defs><g clip-path="url(#a)"><path fill="url(#b)" d="M8 35.7v2.8c0 .8-.7 1.5-1.5 1.5S5 39.3 5 38.5v-4.1q1.4.9 3 1.3zm7 .3v6.5c0 .8-.7 1.5-1.5 1.5s-1.5-.7-1.5-1.5V36zm7 0v10.5c0 .8-.7 1.5-1.5 1.5s-1.5-.7-1.5-1.5V36zm7 0v6.5c0 .8-.7 1.5-1.5 1.5s-1.5-.7-1.5-1.5V36zm7-1.4v3.9c0 .8-.7 1.5-1.5 1.5s-1.5-.7-1.5-1.5v-2.7q1.6-.3 3-1.2z"/><path fill="url(#c)" d="M36 5.2c0 4.8 3.9 8.7 8.7 8.7l1.3-.1c-.4 2.4-1.5 4.8-3.4 6.7a11.5 11.5 0 0 1-3.7 2.5l-1-1.6a9.3 9.3 0 0 0-4.1-2.6c-.9-2.4-2.5-4.5-4.5-6-2-1.6-4.4-2.6-7.1-2.8.4-2.4 1.5-4.6 3.3-6.5C28.7.4 33.2-.7 37.2.4l.2.1c-.9 1.4-1.4 3-1.4 4.7z"/><path fill="url(#d)" d="M32.2 20.5c3.3.4 5.8 3.3 5.8 6.7 0 3.8-3 6.8-6.6 6.8H9.9A8.6 8.6 0 0 1 2 25.3c0-4.8 3.8-8.6 8.5-8.6l1.5.1c2.1-2.9 5.5-4.8 9.2-4.8 5.3 0 9.7 3.6 11 8.5z"/></g></svg>
