<svg xmlns="http://www.w3.org/2000/svg" width="48" height="48" version="1.2"><defs><linearGradient id="b" x1="-8" x2="-8" y1="30" y2="46" gradientUnits="userSpaceOnUse"><stop offset="0" stop-color="#3fcef5"/><stop offset=".2" stop-color="#32bcf5"/><stop offset=".4" stop-color="#26a9f5"/><stop offset=".6" stop-color="#1997f5"/><stop offset=".8" stop-color="#0c84f5"/></linearGradient><linearGradient id="c" x1="-26.9" x2="-26.9" y1="0" y2="28" gradientUnits="userSpaceOnUse"><stop offset="0" stop-color="#efefef"/><stop offset=".2" stop-color="#ebebeb"/><stop offset=".4" stop-color="#e7e7e7"/><stop offset=".6" stop-color="#e2e2e2"/><stop offset=".8" stop-color="#dedede"/></linearGradient><linearGradient id="d" x1="-24.7" x2="-24.7" y1="14.1" y2="39.5" gradientUnits="userSpaceOnUse"><stop offset="0" stop-color="#dba100"/><stop offset=".2" stop-color="#d8b400"/><stop offset=".4" stop-color="#d5c600"/><stop offset=".6" stop-color="#d2d900"/><stop offset=".8" stop-color="#cfec00"/></linearGradient><clipPath id="a" clipPathUnits="userSpaceOnUse"><path d="M0 0h48v48H0z"/></clipPath></defs><g clip-path="url(#a)"><path fill="url(#b)" fill-rule="evenodd" d="M16 30h4v14a2 2 0 0 1-2 2 2 2 0 0 1-2-2zm8 2c0-1.1.9-2 2-2a2 2 0 0 1 2 2v4a2 2 0 0 1-2 2 2 2 0 0 1-2-2zm12 12a2 2 0 0 1-2 2 2 2 0 0 1-2-2V30h4zm4-12c0-1.1.9-2 2-2a2 2 0 0 1 2 2v4a2 2 0 0 1-2 2 2 2 0 0 1-2-2zM24 44v-4h4v4a2 2 0 0 1-2 2 2 2 0 0 1-2-2zm18 2a2 2 0 0 1-2-2v-4h4v4a2 2 0 0 1-2 2zm-30-4v2a2 2 0 0 1-2 2 2 2 0 0 1-2-2v-2c0-1.1.9-2 2-2a2 2 0 0 1 2 2z"/><path fill="url(#c)" d="M13.4 6.1C16.1 2.4 20.6 0 25.7 0c6.9 0 12.8 4.6 14.6 10.8 4.3.6 7.7 4.2 7.7 8.6 0 4.7-3.9 8.6-8.8 8.6H16.9l1.8-2.8c.6-1.1.7-2.4.1-3.4a3.2 3.2 0 0 0-2.9-1.7h-3.7l.7-4.1c.2-1-.1-1.9-.7-2.7a3.7 3.7 0 0 0-2.6-1.2H1.1C3 8.5 6.8 5.9 11.3 5.9q1.1 0 2.1.2z"/><path fill="url(#d)" d="M9.9 22.1h6c1 0 1.6 1.1 1.1 2L7.5 39c-.3.5-.9.7-1.5.5l-.5-.2c-.3-.3-.5-.8-.4-1.2l1.1-7.9.2-1.5H1.3c-.8 0-1.4-.8-1.3-1.6l1.8-11.8c.1-.7.7-1.2 1.4-1.2h6.4c.9 0 1.5.8 1.3 1.6z"/></g></svg>
