<svg version="1.2" xmlns="http://www.w3.org/2000/svg" viewBox="0 0 48 48" width="48" height="48">
	<title>11n-pdf</title>
	<defs>
		<clipPath clipPathUnits="userSpaceOnUse" id="cp1">
			<path d="m0 0h48v48h-48z"/>
		</clipPath>
		<linearGradient id="g1" x1="-8" y1="30" x2="-8" y2="46" gradientUnits="userSpaceOnUse">
			<stop offset="0" stop-color="#3fcef5"/>
			<stop offset=".2" stop-color="#32bcf5"/>
			<stop offset=".4" stop-color="#26a9f5"/>
			<stop offset=".6" stop-color="#1997f5"/>
			<stop offset=".8" stop-color="#0c84f5"/>
		</linearGradient>
		<linearGradient id="g2" x1="-26.9" y1="0" x2="-26.9" y2="28" gradientUnits="userSpaceOnUse">
			<stop offset="0" stop-color="#efefef"/>
			<stop offset=".2" stop-color="#ebebeb"/>
			<stop offset=".4" stop-color="#e7e7e7"/>
			<stop offset=".6" stop-color="#e2e2e2"/>
			<stop offset=".8" stop-color="#dedede"/>
		</linearGradient>
		<linearGradient id="g3" x1="-24.7" y1="14.1" x2="-24.7" y2="39.5" gradientUnits="userSpaceOnUse">
			<stop offset="0" stop-color="#dba100"/>
			<stop offset=".2" stop-color="#d8b400"/>
			<stop offset=".4" stop-color="#d5c600"/>
			<stop offset=".6" stop-color="#d2d900"/>
			<stop offset=".8" stop-color="#cfec00"/>
		</linearGradient>
	</defs>
	<style>
		.s0 { fill: url(#g1) } 
		.s1 { fill: url(#g2) } 
		.s2 { fill: url(#g3) } 
	</style>
	<g id="Page 1" clip-path="url(#cp1)">
		<path id="Path 1" fill-rule="evenodd" class="s0" d="m16 30h4v14c0 1.1-0.9 2-2 2-1.1 0-2-0.9-2-2zm8 2c0-1.1 0.9-2 2-2 1.1 0 2 0.9 2 2v4c0 1.1-0.9 2-2 2-1.1 0-2-0.9-2-2zm12 12c0 1.1-0.9 2-2 2-1.1 0-2-0.9-2-2v-14h4zm4-12c0-1.1 0.9-2 2-2 1.1 0 2 0.9 2 2v4c0 1.1-0.9 2-2 2-1.1 0-2-0.9-2-2zm-16 12v-4h4v4c0 1.1-0.9 2-2 2-1.1 0-2-0.9-2-2zm18 2c-1.1 0-2-0.9-2-2v-4h4v4c0 1.1-0.9 2-2 2zm-30-4v2c0 1.1-0.9 2-2 2-1.1 0-2-0.9-2-2v-2c0-1.1 0.9-2 2-2 1.1 0 2 0.9 2 2z"/>
		<path id="Path 2" class="s1" d="m13.4 6.1c2.7-3.7 7.2-6.1 12.3-6.1 6.9 0 12.8 4.6 14.6 10.8 4.3 0.6 7.7 4.2 7.7 8.6 0 4.7-3.9 8.6-8.8 8.6h-22.3l1.8-2.8c0.6-1.1 0.7-2.4 0.1-3.4-0.6-1.1-1.7-1.7-2.9-1.7h-3.7l0.7-4.1c0.2-1-0.1-1.9-0.7-2.7-0.7-0.7-1.6-1.2-2.6-1.2h-6.5-2c1.9-3.6 5.7-6.2 10.2-6.2q1.1 0 2.1 0.2z"/>
		<path id="Path 4" class="s2" d="m9.9 22.1h6c1 0 1.6 1.1 1.1 2l-9.5 14.9c-0.3 0.5-0.9 0.7-1.5 0.5-0.3-0.1-0.3-0.1-0.5-0.2-0.3-0.3-0.5-0.8-0.4-1.2l1.1-7.9 0.2-1.5h-5.1c-0.8 0-1.4-0.8-1.3-1.6l1.8-11.8c0.1-0.7 0.7-1.2 1.4-1.2h6.4c0.9 0 1.5 0.8 1.3 1.6z"/>
	</g>
</svg>