<svg xmlns="http://www.w3.org/2000/svg" width="48" height="48" version="1.2"><defs><linearGradient id="b" x1="-28" x2="-28" y1="2" y2="30" gradientUnits="userSpaceOnUse"><stop offset="0" stop-color="#efefef"/><stop offset=".2" stop-color="#ebebeb"/><stop offset=".4" stop-color="#e7e7e7"/><stop offset=".6" stop-color="#e2e2e2"/><stop offset=".8" stop-color="#dedede"/></linearGradient><linearGradient id="c" x1="13.7" x2="13.7" y1="32" y2="46" gradientUnits="userSpaceOnUse"><stop offset="0" stop-color="#7cb9ff"/><stop offset=".2" stop-color="#63abfd"/><stop offset=".4" stop-color="#4a9dfb"/><stop offset=".6" stop-color="#328ef9"/><stop offset=".8" stop-color="#1980f7"/></linearGradient><linearGradient id="d" x1="-4.7" x2="-4.7" y1="32" y2="46" gradientUnits="userSpaceOnUse"><stop offset="0" stop-color="#7cb9ff"/><stop offset=".2" stop-color="#63abfd"/><stop offset=".4" stop-color="#4a9dfb"/><stop offset=".6" stop-color="#328ef9"/><stop offset=".8" stop-color="#1980f7"/></linearGradient><clipPath id="a" clipPathUnits="userSpaceOnUse"><path d="M0 0h48v48H0z"/></clipPath></defs><g clip-path="url(#a)"><path fill="url(#b)" d="M40.3 12.8c4.3.6 7.7 4.2 7.7 8.6 0 4.7-4 8.6-8.8 8.6H10.5A11.1 11.1 0 0 1 0 19C0 12.9 5.1 7.9 11.3 7.9q1.1 0 2.1.2C16.1 4.4 20.6 2 25.7 2c6.9 0 12.8 4.6 14.6 10.8z"/><path fill="url(#c)" d="M31.7 33.5c0-.8.6-1.5 1.5-1.5.8 0 1.5.7 1.5 1.5v2.8l2.3-1.5c.7-.4 1.7-.2 2.1.5.4.7.2 1.6-.5 2.1L36 39l2.6 1.6c.7.5.9 1.4.5 2.1-.4.7-1.4.9-2.1.5l-2.3-1.5v2.8c0 .8-.7 1.5-1.5 1.5-.9 0-1.5-.7-1.5-1.5v-2.8l-2.4 1.5c-.7.4-1.6.2-2.1-.5-.4-.7-.2-1.6.5-2.1l2.6-1.6-2.6-1.6c-.7-.5-.9-1.4-.5-2.1.5-.7 1.4-.9 2.1-.5l2.4 1.5z"/><path fill="url(#d)" d="M13.3 33.5c0-.8.7-1.5 1.5-1.5.9 0 1.5.7 1.5 1.5v2.8l2.4-1.5c.7-.4 1.6-.2 2.1.5.4.7.2 1.6-.5 2.1L17.7 39l2.6 1.6c.7.5.9 1.4.5 2.1-.5.7-1.4.9-2.1.5l-2.4-1.5v2.8c0 .8-.6 1.5-1.5 1.5-.8 0-1.5-.7-1.5-1.5v-2.8L11 43.2c-.7.4-1.7.2-2.1-.5-.4-.7-.2-1.6.5-2.1L12 39l-2.6-1.6c-.7-.5-.9-1.4-.5-2.1.4-.7 1.4-.9 2.1-.5l2.3 1.5z"/></g></svg>
