<svg version="1.2" xmlns="http://www.w3.org/2000/svg" viewBox="0 0 48 48" width="48" height="48">
	<title>13n-pdf</title>
	<defs>
		<clipPath clipPathUnits="userSpaceOnUse" id="cp1">
			<path d="m0 0h48v48h-48z"/>
		</clipPath>
		<linearGradient id="g1" x1="-28" y1="2" x2="-28" y2="30" gradientUnits="userSpaceOnUse">
			<stop offset="0" stop-color="#efefef"/>
			<stop offset=".2" stop-color="#ebebeb"/>
			<stop offset=".4" stop-color="#e7e7e7"/>
			<stop offset=".6" stop-color="#e2e2e2"/>
			<stop offset=".8" stop-color="#dedede"/>
		</linearGradient>
		<linearGradient id="g2" x1="13.7" y1="32" x2="13.7" y2="46" gradientUnits="userSpaceOnUse">
			<stop offset="0" stop-color="#7cb9ff"/>
			<stop offset=".2" stop-color="#63abfd"/>
			<stop offset=".4" stop-color="#4a9dfb"/>
			<stop offset=".6" stop-color="#328ef9"/>
			<stop offset=".8" stop-color="#1980f7"/>
		</linearGradient>
		<linearGradient id="g3" x1="-4.7" y1="32" x2="-4.7" y2="46" gradientUnits="userSpaceOnUse">
			<stop offset="0" stop-color="#7cb9ff"/>
			<stop offset=".2" stop-color="#63abfd"/>
			<stop offset=".4" stop-color="#4a9dfb"/>
			<stop offset=".6" stop-color="#328ef9"/>
			<stop offset=".8" stop-color="#1980f7"/>
		</linearGradient>
	</defs>
	<style>
		.s0 { fill: url(#g1) } 
		.s1 { fill: url(#g2) } 
		.s2 { fill: url(#g3) } 
	</style>
	<g id="Page 1" clip-path="url(#cp1)">
		<path id="Path 1" class="s0" d="m40.3 12.8c4.3 0.6 7.7 4.2 7.7 8.6 0 4.7-4 8.6-8.8 8.6h-28.7c-5.9-0.4-10.5-5.2-10.5-11 0-6.1 5.1-11.1 11.3-11.1q1.1 0 2.1 0.2c2.7-3.7 7.2-6.1 12.3-6.1 6.9 0 12.8 4.6 14.6 10.8z"/>
		<path id="Path 3" class="s1" d="m31.7 33.5c0-0.8 0.6-1.5 1.5-1.5 0.8 0 1.5 0.7 1.5 1.5v2.8l2.3-1.5c0.7-0.4 1.7-0.2 2.1 0.5 0.4 0.7 0.2 1.6-0.5 2.1l-2.6 1.6 2.6 1.6c0.7 0.5 0.9 1.4 0.5 2.1-0.4 0.7-1.4 0.9-2.1 0.5l-2.3-1.5v2.8c0 0.8-0.7 1.5-1.5 1.5-0.9 0-1.5-0.7-1.5-1.5v-2.8l-2.4 1.5c-0.7 0.4-1.6 0.2-2.1-0.5-0.4-0.7-0.2-1.6 0.5-2.1l2.6-1.6-2.6-1.6c-0.7-0.5-0.9-1.4-0.5-2.1 0.5-0.7 1.4-0.9 2.1-0.5l2.4 1.5z"/>
		<path id="Path 4" class="s2" d="m13.3 33.5c0-0.8 0.7-1.5 1.5-1.5 0.9 0 1.5 0.7 1.5 1.5v2.8l2.4-1.5c0.7-0.4 1.6-0.2 2.1 0.5 0.4 0.7 0.2 1.6-0.5 2.1l-2.6 1.6 2.6 1.6c0.7 0.5 0.9 1.4 0.5 2.1-0.5 0.7-1.4 0.9-2.1 0.5l-2.4-1.5v2.8c0 0.8-0.6 1.5-1.5 1.5-0.8 0-1.5-0.7-1.5-1.5v-2.8l-2.3 1.5c-0.7 0.4-1.7 0.2-2.1-0.5-0.4-0.7-0.2-1.6 0.5-2.1l2.6-1.6-2.6-1.6c-0.7-0.5-0.9-1.4-0.5-2.1 0.4-0.7 1.4-0.9 2.1-0.5l2.3 1.5z"/>
	</g>
</svg>