<svg xmlns="http://www.w3.org/2000/svg" width="48" height="48" version="1.2"><defs><linearGradient id="b" x1="-28" x2="-28" y1="2" y2="30" gradientUnits="userSpaceOnUse"><stop offset="0" stop-color="#d9d9d9"/><stop offset=".2" stop-color="#dedede"/><stop offset=".4" stop-color="#e2e2e2"/><stop offset=".6" stop-color="#e7e7e7"/><stop offset=".8" stop-color="#ebebeb"/></linearGradient><linearGradient id="c" x1="45" x2="3" y1="-15.5" y2="-15.5" gradientUnits="userSpaceOnUse"><stop offset="0" stop-color="#3fcef5"/><stop offset=".2" stop-color="#3fcef5"/><stop offset=".4" stop-color="#3fcef5"/><stop offset=".6" stop-color="#3fcef5"/><stop offset=".8" stop-color="#3fcef5"/></linearGradient><clipPath id="a" clipPathUnits="userSpaceOnUse"><path d="M0 0h48v48H0z"/></clipPath></defs><g clip-path="url(#a)"><path fill="url(#b)" d="M40.3 12.8c4.3.6 7.7 4.2 7.7 8.6 0 4.7-4 8.6-8.8 8.6H10.5A11.1 11.1 0 0 1 0 19C0 12.9 5.1 7.9 11.3 7.9q1.1 0 2.1.2C16.1 4.4 20.6 2 25.7 2c6.9 0 12.8 4.6 14.6 10.8z"/><path fill="url(#c)" d="M24 37.7c-5.2 0-7.8-.8-10.3-1.6-2.5-.8-4.9-1.6-9.7-1.6-.6 0-1-.4-1-1 0-.5.4-1 1-1 5.2 0 7.8.9 10.3 1.7 2.5.8 4.9 1.5 9.7 1.5 4.8 0 7.2-.7 9.7-1.5 2.5-.8 5.1-1.7 10.3-1.7.6 0 1 .5 1 1 0 .6-.4 1-1 1-4.8 0-7.2.8-9.7 1.6-2.5.8-5.1 1.6-10.3 1.6zm0-6c-5.2 0-7.8-.8-10.3-1.6-2.5-.8-4.9-1.6-9.7-1.6-.6 0-1-.4-1-1 0-.5.4-1 1-1 5.2 0 7.8.9 10.3 1.7 2.5.8 4.9 1.5 9.7 1.5 4.8 0 7.2-.7 9.7-1.5 2.5-.8 5.1-1.7 10.3-1.7.6 0 1 .5 1 1 0 .6-.4 1-1 1-4.8 0-7.2.8-9.7 1.6-2.5.8-5.1 1.6-10.3 1.6zm0 12c-5.2 0-7.8-.8-10.3-1.6-2.5-.8-4.9-1.6-9.7-1.6-.6 0-1-.4-1-1 0-.5.4-1 1-1 5.2 0 7.8.9 10.3 1.7 2.5.8 4.9 1.5 9.7 1.5 4.8 0 7.2-.7 9.7-1.5 2.5-.8 5.1-1.7 10.3-1.7.6 0 1 .5 1 1 0 .6-.4 1-1 1-4.8 0-7.2.8-9.7 1.6-2.5.8-5.1 1.6-10.3 1.6z"/></g></svg>
