<svg version="1.2" xmlns="http://www.w3.org/2000/svg" viewBox="0 0 48 48" width="48" height="48">
	<title>50n-pdf</title>
	<defs>
		<clipPath clipPathUnits="userSpaceOnUse" id="cp1">
			<path d="m0 0h48v48h-48z"/>
		</clipPath>
		<linearGradient id="g1" x1="-28" y1="2" x2="-28" y2="30" gradientUnits="userSpaceOnUse">
			<stop offset="0" stop-color="#d9d9d9"/>
			<stop offset=".2" stop-color="#dedede"/>
			<stop offset=".4" stop-color="#e2e2e2"/>
			<stop offset=".6" stop-color="#e7e7e7"/>
			<stop offset=".8" stop-color="#ebebeb"/>
		</linearGradient>
		<linearGradient id="g2" x1="45" y1="-15.5" x2="3" y2="-15.5" gradientUnits="userSpaceOnUse">
			<stop offset="0" stop-color="#3fcef5"/>
			<stop offset=".2" stop-color="#3fcef5"/>
			<stop offset=".4" stop-color="#3fcef5"/>
			<stop offset=".6" stop-color="#3fcef5"/>
			<stop offset=".8" stop-color="#3fcef5"/>
		</linearGradient>
	</defs>
	<style>
		.s0 { fill: url(#g1) } 
		.s1 { fill: url(#g2) } 
	</style>
	<g id="Page 1" clip-path="url(#cp1)">
		<path id="Path 1" class="s0" d="m40.3 12.8c4.3 0.6 7.7 4.2 7.7 8.6 0 4.7-4 8.6-8.8 8.6h-28.7c-5.9-0.4-10.5-5.2-10.5-11 0-6.1 5.1-11.1 11.3-11.1q1.1 0 2.1 0.2c2.7-3.7 7.2-6.1 12.3-6.1 6.9 0 12.8 4.6 14.6 10.8z"/>
		<path id="Path 3" class="s1" d="m24 37.7c-5.2 0-7.8-0.8-10.3-1.6-2.5-0.8-4.9-1.6-9.7-1.6-0.6 0-1-0.4-1-1 0-0.5 0.4-1 1-1 5.2 0 7.8 0.9 10.3 1.7 2.5 0.8 4.9 1.5 9.7 1.5 4.8 0 7.2-0.7 9.7-1.5 2.5-0.8 5.1-1.7 10.3-1.7 0.6 0 1 0.5 1 1 0 0.6-0.4 1-1 1-4.8 0-7.2 0.8-9.7 1.6-2.5 0.8-5.1 1.6-10.3 1.6zm0-6c-5.2 0-7.8-0.8-10.3-1.6-2.5-0.8-4.9-1.6-9.7-1.6-0.6 0-1-0.4-1-1 0-0.5 0.4-1 1-1 5.2 0 7.8 0.9 10.3 1.7 2.5 0.8 4.9 1.5 9.7 1.5 4.8 0 7.2-0.7 9.7-1.5 2.5-0.8 5.1-1.7 10.3-1.7 0.6 0 1 0.5 1 1 0 0.6-0.4 1-1 1-4.8 0-7.2 0.8-9.7 1.6-2.5 0.8-5.1 1.6-10.3 1.6zm0 12c-5.2 0-7.8-0.8-10.3-1.6-2.5-0.8-4.9-1.6-9.7-1.6-0.6 0-1-0.4-1-1 0-0.5 0.4-1 1-1 5.2 0 7.8 0.9 10.3 1.7 2.5 0.8 4.9 1.5 9.7 1.5 4.8 0 7.2-0.7 9.7-1.5 2.5-0.8 5.1-1.7 10.3-1.7 0.6 0 1 0.5 1 1 0 0.6-0.4 1-1 1-4.8 0-7.2 0.8-9.7 1.6-2.5 0.8-5.1 1.6-10.3 1.6z"/>
	</g>
</svg>